<?xml version="1.0" encoding="UTF-8" standalone="no"?>
<!DOCTYPE svg PUBLIC "-//W3C//DTD SVG 1.1//EN" "http://www.w3.org/Graphics/SVG/1.1/DTD/svg11.dtd"
[
<!ATTLIST g
  xmlns:vectornator CDATA #FIXED "http://vectornator.io"
  vectornator:layerName CDATA #IMPLIED >
<!ATTLIST g
  xmlns:vectornator CDATA #FIXED "http://vectornator.io"
  vectornator:mask CDATA #IMPLIED >
<!ATTLIST text
  xmlns:vectornator CDATA #FIXED "http://vectornator.io"
  vectornator:width CDATA #IMPLIED >

<!ATTLIST path
  xmlns:vectornator CDATA #FIXED "http://vectornator.io"
  vectornator:blendMode CDATA #IMPLIED >
<!ATTLIST path
  xmlns:vectornator CDATA #FIXED "http://vectornator.io"
  vectornator:shadowColor CDATA #IMPLIED >
<!ATTLIST path
  xmlns:vectornator CDATA #FIXED "http://vectornator.io"
  vectornator:shadowOpacity CDATA #IMPLIED >
<!ATTLIST path
  xmlns:vectornator CDATA #FIXED "http://vectornator.io"
  vectornator:shadowRadius CDATA #IMPLIED >
<!ATTLIST path
  xmlns:vectornator CDATA #FIXED "http://vectornator.io"
  vectornator:shadowOffset CDATA #IMPLIED >
<!ATTLIST path
  xmlns:vectornator CDATA #FIXED "http://vectornator.io"
  vectornator:shadowAngle CDATA #IMPLIED >

<!ATTLIST image
  xmlns:vectornator CDATA #FIXED "http://vectornator.io"
  vectornator:blendMode CDATA #IMPLIED >
<!ATTLIST image
  xmlns:vectornator CDATA #FIXED "http://vectornator.io"
  vectornator:shadowColor CDATA #IMPLIED >
<!ATTLIST image
  xmlns:vectornator CDATA #FIXED "http://vectornator.io"
  vectornator:shadowOpacity CDATA #IMPLIED >
<!ATTLIST image
  xmlns:vectornator CDATA #FIXED "http://vectornator.io"
  vectornator:shadowRadius CDATA #IMPLIED >
<!ATTLIST image
  xmlns:vectornator CDATA #FIXED "http://vectornator.io"
  vectornator:shadowOffset CDATA #IMPLIED >
<!ATTLIST image
  xmlns:vectornator CDATA #FIXED "http://vectornator.io"
  vectornator:shadowAngle CDATA #IMPLIED >

<!ATTLIST g
  xmlns:vectornator CDATA #FIXED "http://vectornator.io"
  vectornator:blendMode CDATA #IMPLIED >
<!ATTLIST g
  xmlns:vectornator CDATA #FIXED "http://vectornator.io"
  vectornator:shadowColor CDATA #IMPLIED >
<!ATTLIST g
  xmlns:vectornator CDATA #FIXED "http://vectornator.io"
  vectornator:shadowOpacity CDATA #IMPLIED >
<!ATTLIST g
  xmlns:vectornator CDATA #FIXED "http://vectornator.io"
  vectornator:shadowRadius CDATA #IMPLIED >
<!ATTLIST g
  xmlns:vectornator CDATA #FIXED "http://vectornator.io"
  vectornator:shadowOffset CDATA #IMPLIED >
<!ATTLIST g
  xmlns:vectornator CDATA #FIXED "http://vectornator.io"
  vectornator:shadowAngle CDATA #IMPLIED >

<!ENTITY % SVG.filter.extra.content  "| feDropShadow" >
<!ELEMENT feDropShadow EMPTY>
<!ATTLIST feDropShadow
  xmlns:svg CDATA #FIXED "http://www.w3.org/Graphics/SVG/1.1/DTD/svg11.dtd"
  dx CDATA #IMPLIED>
<!ATTLIST feDropShadow
  xmlns:svg CDATA #FIXED "http://www.w3.org/Graphics/SVG/1.1/DTD/svg11.dtd"
  dy CDATA #IMPLIED>
<!ATTLIST feDropShadow
  xmlns:svg CDATA #FIXED "http://www.w3.org/Graphics/SVG/1.1/DTD/svg11.dtd"
  stdDeviation CDATA #IMPLIED>
<!ATTLIST feDropShadow
  xmlns:svg CDATA #FIXED "http://www.w3.org/Graphics/SVG/1.1/DTD/svg11.dtd"
  flood-opacity CDATA #IMPLIED>
<!ATTLIST feDropShadow
  xmlns:svg CDATA #FIXED "http://www.w3.org/Graphics/SVG/1.1/DTD/svg11.dtd"
  in CDATA #IMPLIED>
<!ATTLIST feDropShadow
  xmlns:svg CDATA #FIXED "http://www.w3.org/Graphics/SVG/1.1/DTD/svg11.dtd"
  result CDATA #IMPLIED>
<!ATTLIST feDropShadow
  xmlns:svg CDATA #FIXED "http://www.w3.org/Graphics/SVG/1.1/DTD/svg11.dtd"
  flood-color CDATA #IMPLIED>
]
>
<!-- Created with Vectornator (http://vectornator.io/) -->
<svg height="100%" stroke-miterlimit="10" style="fill-rule:nonzero;clip-rule:evenodd;stroke-linecap:round;stroke-linejoin:round;" version="1.1" viewBox="0 0 1194 834" width="100%" xml:space="preserve" xmlns="http://www.w3.org/2000/svg" xmlns:vectornator="http://vectornator.io" xmlns:xlink="http://www.w3.org/1999/xlink">
<defs>
<clipPath id="TextBounds">
<rect height="168.462" width="1108.95" x="42.525" y="491.321"/>
</clipPath>
<clipPath id="TextBounds_2">
<rect height="101.242" width="266.253" x="463.873" y="660.736"/>
</clipPath>
</defs>
<g id="Layer-1" vectornator:layerName="Layer 1">
<g fill="#000000" opacity="1" stroke="none">
<path clip-path="url(#TextBounds)" d="M77.897 601.697C77.897 605.59 78.0917 608.632 78.481 610.822C78.8703 613.012 79.6733 614.739 80.89 616.005C82.1067 617.27 83.883 618.243 86.219 618.925C88.555 619.606 91.7183 620.336 95.709 621.115L95.709 622.867C91.5237 622.672 87.387 622.526 83.299 622.429C79.211 622.331 75.0743 622.283 70.889 622.283C67.2877 622.283 63.7107 622.331 60.158 622.429C56.6053 622.526 53.0283 622.672 49.427 622.867L49.427 621.115C52.931 620.823 55.6807 620.287 57.676 619.509C59.6713 618.73 61.2043 617.513 62.275 615.859C63.3457 614.204 64.027 612.038 64.319 609.362C64.611 606.685 64.757 603.303 64.757 599.215L64.757 550.451C64.757 546.363 64.611 542.98 64.319 540.304C64.027 537.627 63.3457 535.461 62.275 533.807C61.2043 532.152 59.6713 530.935 57.676 530.157C55.6807 529.378 52.931 528.843 49.427 528.551L49.427 526.799C50.7897 526.896 52.5903 526.993 54.829 527.091C57.0677 527.188 59.3793 527.261 61.764 527.31C64.1487 527.358 66.436 527.383 68.626 527.383C70.816 527.383 72.5923 527.383 73.955 527.383L105.637 527.383C110.601 527.383 114.981 527.31 118.777 527.164C122.573 527.018 126.564 526.896 130.749 526.799C130.554 528.843 130.408 530.862 130.311 532.858C130.214 534.853 130.165 536.824 130.165 538.771C130.165 541.301 130.214 543.808 130.311 546.29C130.408 548.772 130.554 551.278 130.749 553.809L128.413 553.809C126.856 548.261 124.836 543.954 122.354 540.888C119.872 537.822 116.952 535.583 113.594 534.172C110.236 532.76 106.416 531.909 102.133 531.617C97.8503 531.325 93.1783 531.179 88.117 531.179C86.4623 531.179 84.8077 531.227 83.153 531.325C81.4983 531.422 79.7463 531.471 77.897 531.471L77.897 567.679L89.577 567.679C95.417 567.679 99.943 566.462 103.155 564.029C106.367 561.595 108.946 557.605 110.893 552.057L112.645 552.057C112.353 558.675 112.207 565.294 112.207 571.913C112.207 575.417 112.231 578.653 112.28 581.622C112.329 584.59 112.45 587.778 112.645 591.185L110.893 591.185C109.92 587.583 108.898 584.59 107.827 582.206C106.756 579.821 105.467 577.899 103.958 576.439C102.449 574.979 100.624 573.908 98.483 573.227C96.3417 572.545 93.7137 572.059 90.599 571.767C89.723 571.669 88.7983 571.596 87.825 571.548C86.8517 571.499 85.8297 571.475 84.759 571.475L77.897 571.475L77.897 601.697Z" fill-rule="evenodd"/>
<path clip-path="url(#TextBounds)" d="M167.833 580.089L158.197 606.515C157.905 607.293 157.637 607.975 157.394 608.559C157.151 609.143 157.029 609.775 157.029 610.457C157.029 612.209 157.54 613.717 158.562 614.983C159.584 616.248 160.825 617.294 162.285 618.122C163.745 618.949 165.254 619.606 166.811 620.093C168.368 620.579 169.682 620.92 170.753 621.115L170.753 622.867C167.833 622.672 164.913 622.526 161.993 622.429C159.073 622.331 156.104 622.283 153.087 622.283C150.167 622.283 147.32 622.331 144.546 622.429C141.772 622.526 138.828 622.672 135.713 622.867L135.713 621.115C138.73 620.433 141.237 619.387 143.232 617.976C145.227 616.564 146.906 614.885 148.269 612.939C149.632 610.992 150.824 608.851 151.846 606.515C152.868 604.179 153.866 601.745 154.839 599.215L180.097 537.165C180.389 536.483 180.657 535.851 180.9 535.267C181.143 534.683 181.265 534.147 181.265 533.661C181.265 533.174 181.095 532.444 180.754 531.471C180.413 530.497 180 529.621 179.513 528.843C182.044 528.356 184.234 527.723 186.083 526.945C187.932 526.166 189.976 525.339 192.215 524.463L222.583 607.975C223.946 611.771 225.844 614.764 228.277 616.954C230.71 619.144 234.312 620.531 239.081 621.115L239.081 622.867C235.188 622.672 231.367 622.526 227.62 622.429C223.873 622.331 219.955 622.283 215.867 622.283C213.239 622.283 210.952 622.283 209.005 622.283C207.058 622.283 205.306 622.307 203.749 622.356C202.192 622.404 200.707 622.477 199.296 622.575C197.885 622.672 196.352 622.769 194.697 622.867L194.697 621.115C198.785 620.628 202.216 619.582 204.99 617.976C207.764 616.37 209.151 614.204 209.151 611.479C209.151 610.7 208.981 609.921 208.64 609.143C208.299 608.364 208.032 607.634 207.837 606.953L198.347 580.089L167.833 580.089ZM183.601 538.625L169.293 575.709L196.741 575.709L183.601 538.625Z" fill-rule="evenodd"/>
<path clip-path="url(#TextBounds)" d="M264.485 621.115C267.989 620.823 270.714 620.287 272.661 619.509C274.608 618.73 276.092 617.513 277.114 615.859C278.136 614.204 278.769 612.038 279.012 609.362C279.255 606.685 279.377 603.303 279.377 599.215L279.377 531.471C274.218 531.471 269.911 531.665 266.456 532.055C263.001 532.444 260.008 533.442 257.477 535.048C254.946 536.654 252.732 539.111 250.834 542.421C248.936 545.73 247.062 550.256 245.213 555.999L243.315 555.415L245.359 526.799C249.447 526.993 253.486 527.139 257.477 527.237C261.468 527.334 265.507 527.383 269.595 527.383L303.905 527.383C307.798 527.383 311.643 527.334 315.439 527.237C319.235 527.139 323.08 526.993 326.973 526.799L329.017 555.415L327.119 555.999C325.27 550.256 323.396 545.73 321.498 542.421C319.6 539.111 317.386 536.654 314.855 535.048C312.324 533.442 309.283 532.444 305.73 532.055C302.177 531.665 297.773 531.471 292.517 531.471L292.517 599.215C292.517 603.303 292.639 606.685 292.882 609.362C293.125 612.038 293.758 614.204 294.78 615.859C295.802 617.513 297.335 618.73 299.379 619.509C301.423 620.287 304.246 620.823 307.847 621.115L307.847 622.867C304.148 622.672 300.45 622.526 296.751 622.429C293.052 622.331 289.354 622.283 285.655 622.283C282.054 622.283 278.501 622.331 274.997 622.429C271.493 622.526 267.989 622.672 264.485 622.867L264.485 621.115Z" fill-rule="evenodd"/>
<path clip-path="url(#TextBounds)" d="M403.769 601.697C403.769 605.59 403.964 608.632 404.353 610.822C404.742 613.012 405.545 614.739 406.762 616.005C407.979 617.27 409.755 618.243 412.091 618.925C414.427 619.606 417.59 620.336 421.581 621.115L421.581 622.867C417.396 622.672 413.259 622.526 409.171 622.429C405.083 622.331 400.946 622.283 396.761 622.283C393.16 622.283 389.583 622.331 386.03 622.429C382.477 622.526 378.9 622.672 375.299 622.867L375.299 621.115C378.803 620.823 381.553 620.287 383.548 619.509C385.543 618.73 387.076 617.513 388.147 615.859C389.218 614.204 389.899 612.038 390.191 609.362C390.483 606.685 390.629 603.303 390.629 599.215L390.629 550.451C390.629 546.363 390.483 542.98 390.191 540.304C389.899 537.627 389.218 535.461 388.147 533.807C387.076 532.152 385.543 530.935 383.548 530.157C381.553 529.378 378.803 528.843 375.299 528.551L375.299 526.799C376.662 526.896 378.462 526.993 380.701 527.091C382.94 527.188 385.251 527.261 387.636 527.31C390.021 527.358 392.308 527.383 394.498 527.383C396.688 527.383 398.464 527.383 399.827 527.383L431.509 527.383C436.473 527.383 440.853 527.31 444.649 527.164C448.445 527.018 452.436 526.896 456.621 526.799C456.426 528.843 456.28 530.862 456.183 532.858C456.086 534.853 456.037 536.824 456.037 538.771C456.037 541.301 456.086 543.808 456.183 546.29C456.28 548.772 456.426 551.278 456.621 553.809L454.285 553.809C452.728 548.261 450.708 543.954 448.226 540.888C445.744 537.822 442.824 535.583 439.466 534.172C436.108 532.76 432.288 531.909 428.005 531.617C423.722 531.325 419.05 531.179 413.989 531.179C412.334 531.179 410.68 531.227 409.025 531.325C407.37 531.422 405.618 531.471 403.769 531.471L403.769 567.679L415.449 567.679C421.289 567.679 425.815 566.462 429.027 564.029C432.239 561.595 434.818 557.605 436.765 552.057L438.517 552.057C438.225 558.675 438.079 565.294 438.079 571.913C438.079 575.417 438.103 578.653 438.152 581.622C438.201 584.59 438.322 587.778 438.517 591.185L436.765 591.185C435.792 587.583 434.77 584.59 433.699 582.206C432.628 579.821 431.339 577.899 429.83 576.439C428.321 574.979 426.496 573.908 424.355 573.227C422.214 572.545 419.586 572.059 416.471 571.767C415.595 571.669 414.67 571.596 413.697 571.548C412.724 571.499 411.702 571.475 410.631 571.475L403.769 571.475L403.769 601.697Z" fill-rule="evenodd"/>
<path clip-path="url(#TextBounds)" d="M493.705 580.089L484.069 606.515C483.777 607.293 483.509 607.975 483.266 608.559C483.023 609.143 482.901 609.775 482.901 610.457C482.901 612.209 483.412 613.717 484.434 614.983C485.456 616.248 486.697 617.294 488.157 618.122C489.617 618.949 491.126 619.606 492.683 620.093C494.24 620.579 495.554 620.92 496.625 621.115L496.625 622.867C493.705 622.672 490.785 622.526 487.865 622.429C484.945 622.331 481.976 622.283 478.959 622.283C476.039 622.283 473.192 622.331 470.418 622.429C467.644 622.526 464.7 622.672 461.585 622.867L461.585 621.115C464.602 620.433 467.109 619.387 469.104 617.976C471.099 616.564 472.778 614.885 474.141 612.939C475.504 610.992 476.696 608.851 477.718 606.515C478.74 604.179 479.738 601.745 480.711 599.215L505.969 537.165C506.261 536.483 506.529 535.851 506.772 535.267C507.015 534.683 507.137 534.147 507.137 533.661C507.137 533.174 506.967 532.444 506.626 531.471C506.285 530.497 505.872 529.621 505.385 528.843C507.916 528.356 510.106 527.723 511.955 526.945C513.804 526.166 515.848 525.339 518.087 524.463L548.455 607.975C549.818 611.771 551.716 614.764 554.149 616.954C556.582 619.144 560.184 620.531 564.953 621.115L564.953 622.867C561.06 622.672 557.239 622.526 553.492 622.429C549.745 622.331 545.827 622.283 541.739 622.283C539.111 622.283 536.824 622.283 534.877 622.283C532.93 622.283 531.178 622.307 529.621 622.356C528.064 622.404 526.579 622.477 525.168 622.575C523.757 622.672 522.224 622.769 520.569 622.867L520.569 621.115C524.657 620.628 528.088 619.582 530.862 617.976C533.636 616.37 535.023 614.204 535.023 611.479C535.023 610.7 534.853 609.921 534.512 609.143C534.171 608.364 533.904 607.634 533.709 606.953L524.219 580.089L493.705 580.089ZM509.473 538.625L495.165 575.709L522.613 575.709L509.473 538.625Z" fill-rule="evenodd"/>
<path clip-path="url(#TextBounds)" d="M590.357 621.115C593.861 620.823 596.586 620.287 598.533 619.509C600.48 618.73 601.964 617.513 602.986 615.859C604.008 614.204 604.641 612.038 604.884 609.362C605.127 606.685 605.249 603.303 605.249 599.215L605.249 531.471C600.09 531.471 595.783 531.665 592.328 532.055C588.873 532.444 585.88 533.442 583.349 535.048C580.818 536.654 578.604 539.111 576.706 542.421C574.808 545.73 572.934 550.256 571.085 555.999L569.187 555.415L571.231 526.799C575.319 526.993 579.358 527.139 583.349 527.237C587.34 527.334 591.379 527.383 595.467 527.383L629.777 527.383C633.67 527.383 637.515 527.334 641.311 527.237C645.107 527.139 648.952 526.993 652.845 526.799L654.889 555.415L652.991 555.999C651.142 550.256 649.268 545.73 647.37 542.421C645.472 539.111 643.258 536.654 640.727 535.048C638.196 533.442 635.155 532.444 631.602 532.055C628.049 531.665 623.645 531.471 618.389 531.471L618.389 599.215C618.389 603.303 618.511 606.685 618.754 609.362C618.997 612.038 619.63 614.204 620.652 615.859C621.674 617.513 623.207 618.73 625.251 619.509C627.295 620.287 630.118 620.823 633.719 621.115L633.719 622.867C630.02 622.672 626.322 622.526 622.623 622.429C618.924 622.331 615.226 622.283 611.527 622.283C607.926 622.283 604.373 622.331 600.869 622.429C597.365 622.526 593.861 622.672 590.357 622.867L590.357 621.115Z" fill-rule="evenodd"/>
<path clip-path="url(#TextBounds)" d="M736.065 526.799C739.666 526.993 743.195 527.139 746.65 527.237C750.105 527.334 753.634 527.383 757.235 527.383C761.323 527.383 765.314 527.334 769.207 527.237C773.1 527.139 777.091 526.993 781.179 526.799L781.179 528.551C778.648 528.843 776.531 529.232 774.828 529.719C773.125 530.205 771.738 530.935 770.667 531.909C769.596 532.882 768.818 534.147 768.331 535.705C767.844 537.262 767.601 539.257 767.601 541.691L767.601 597.171C767.601 601.843 766.53 605.931 764.389 609.435C762.248 612.939 759.425 615.859 755.921 618.195C752.417 620.531 748.426 622.283 743.949 623.451C739.472 624.619 734.897 625.203 730.225 625.203C727.694 625.203 724.701 624.813 721.246 624.035C717.791 623.256 714.457 621.991 711.245 620.239C708.033 618.487 705.308 616.151 703.069 613.231C700.83 610.311 699.711 606.709 699.711 602.427C699.711 599.799 700.49 597.317 702.047 594.981C703.604 592.645 706.086 591.477 709.493 591.477C711.829 591.477 713.897 592.28 715.698 593.886C717.499 595.492 718.399 597.171 718.399 598.923C718.399 600.285 718.229 601.891 717.888 603.741C717.547 605.59 716.89 607.05 715.917 608.121C716.306 610.651 717.036 612.72 718.107 614.326C719.178 615.932 720.467 617.197 721.976 618.122C723.485 619.046 725.139 619.679 726.94 620.02C728.741 620.36 730.566 620.531 732.415 620.531C737.282 620.531 741.175 619.655 744.095 617.903C747.015 616.151 749.229 613.936 750.738 611.26C752.247 608.583 753.244 605.614 753.731 602.354C754.218 599.093 754.461 595.905 754.461 592.791L754.461 544.319C754.461 541.107 754.096 538.552 753.366 536.654C752.636 534.756 751.517 533.247 750.008 532.128C748.499 531.008 746.577 530.205 744.241 529.719C741.905 529.232 739.18 528.843 736.065 528.551L736.065 526.799Z" fill-rule="evenodd"/>
<path clip-path="url(#TextBounds)" d="M794.611 574.833C794.611 566.949 796.047 559.892 798.918 553.663C801.789 547.433 805.658 542.153 810.525 537.822C815.392 533.49 821.11 530.181 827.68 527.894C834.25 525.606 841.234 524.463 848.631 524.463C856.028 524.463 863.012 525.606 869.582 527.894C876.152 530.181 881.87 533.49 886.737 537.822C891.604 542.153 895.473 547.433 898.344 553.663C901.215 559.892 902.651 566.949 902.651 574.833C902.651 582.717 901.215 589.773 898.344 596.003C895.473 602.232 891.604 607.512 886.737 611.844C881.87 616.175 876.152 619.484 869.582 621.772C863.012 624.059 856.028 625.203 848.631 625.203C841.234 625.203 834.25 624.059 827.68 621.772C821.11 619.484 815.392 616.175 810.525 611.844C805.658 607.512 801.789 602.232 798.918 596.003C796.047 589.773 794.611 582.717 794.611 574.833ZM810.087 574.833C810.087 580.77 810.963 586.464 812.715 591.915C814.467 597.365 816.998 602.159 820.307 606.296C823.616 610.432 827.656 613.742 832.425 616.224C837.194 618.706 842.596 619.947 848.631 619.947C854.666 619.947 860.068 618.706 864.837 616.224C869.606 613.742 873.646 610.432 876.955 606.296C880.264 602.159 882.795 597.365 884.547 591.915C886.299 586.464 887.175 580.77 887.175 574.833C887.175 568.895 886.299 563.201 884.547 557.751C882.795 552.3 880.264 547.506 876.955 543.37C873.646 539.233 869.606 535.924 864.837 533.442C860.068 530.96 854.666 529.719 848.631 529.719C842.596 529.719 837.194 530.96 832.425 533.442C827.656 535.924 823.616 539.233 820.307 543.37C816.998 547.506 814.467 552.3 812.715 557.751C810.963 563.201 810.087 568.895 810.087 574.833Z" fill-rule="evenodd"/>
<path clip-path="url(#TextBounds)" d="M997.259 550.451C997.259 546.363 997.137 542.98 996.894 540.304C996.651 537.627 996.018 535.461 994.996 533.807C993.974 532.152 992.441 530.935 990.397 530.157C988.353 529.378 985.579 528.843 982.075 528.551L982.075 526.799C986.163 526.993 990.129 527.139 993.974 527.237C997.819 527.334 1001.78 527.383 1005.87 527.383C1009.09 527.383 1012.3 527.334 1015.51 527.237C1018.72 527.139 1021.88 526.993 1025 526.799L1025 528.551C1021.59 528.843 1018.92 529.378 1016.97 530.157C1015.02 530.935 1013.56 532.152 1012.59 533.807C1011.62 535.461 1011.01 537.627 1010.76 540.304C1010.52 542.98 1010.4 546.363 1010.4 550.451L1010.4 599.215C1010.4 603.303 1010.52 606.685 1010.76 609.362C1011.01 612.038 1011.64 614.204 1012.66 615.859C1013.68 617.513 1015.22 618.73 1017.26 619.509C1019.31 620.287 1022.13 620.823 1025.73 621.115L1025.73 622.867C1022.03 622.672 1018.33 622.526 1014.63 622.429C1010.93 622.331 1007.24 622.283 1003.54 622.283C999.936 622.283 996.383 622.331 992.879 622.429C989.375 622.526 985.871 622.672 982.367 622.867L982.367 621.115C985.871 620.823 988.596 620.287 990.543 619.509C992.49 618.73 993.974 617.513 994.996 615.859C996.018 614.204 996.651 612.038 996.894 609.362C997.137 606.685 997.259 603.303 997.259 599.215L997.259 572.935L943.093 572.935L943.093 599.215C943.093 603.303 943.215 606.685 943.458 609.362C943.701 612.038 944.334 614.204 945.356 615.859C946.378 617.513 947.911 618.73 949.955 619.509C951.999 620.287 954.822 620.823 958.423 621.115L958.423 622.867C954.724 622.672 951.026 622.526 947.327 622.429C943.628 622.331 939.93 622.283 936.231 622.283C932.63 622.283 929.077 622.331 925.573 622.429C922.069 622.526 918.565 622.672 915.061 622.867L915.061 621.115C918.565 620.823 921.29 620.287 923.237 619.509C925.184 618.73 926.668 617.513 927.69 615.859C928.712 614.204 929.345 612.038 929.588 609.362C929.831 606.685 929.953 603.303 929.953 599.215L929.953 550.451C929.953 546.363 929.831 542.98 929.588 540.304C929.345 537.627 928.712 535.461 927.69 533.807C926.668 532.152 925.135 530.935 923.091 530.157C921.047 529.378 918.273 528.843 914.769 528.551L914.769 526.799C918.857 526.993 922.823 527.139 926.668 527.237C930.513 527.334 934.479 527.383 938.567 527.383C941.779 527.383 944.991 527.334 948.203 527.237C951.415 527.139 954.578 526.993 957.693 526.799L957.693 528.551C954.286 528.843 951.61 529.378 949.663 530.157C947.716 530.935 946.256 532.152 945.283 533.807C944.31 535.461 943.701 537.627 943.458 540.304C943.215 542.98 943.093 546.363 943.093 550.451L943.093 568.263L997.259 568.263L997.259 550.451Z" fill-rule="evenodd"/>
<path clip-path="url(#TextBounds)" d="M1033.32 526.799C1036.73 526.993 1039.96 527.139 1043.03 527.237C1046.1 527.334 1049.67 527.383 1053.76 527.383C1055.9 527.383 1057.99 527.334 1060.04 527.237C1062.08 527.139 1064.18 526.993 1066.32 526.799C1067.58 528.551 1069.67 531.203 1072.59 534.756C1075.52 538.308 1078.85 542.372 1082.6 546.947C1086.34 551.521 1090.36 556.388 1094.64 561.547C1098.92 566.705 1103.06 571.742 1107.05 576.658C1111.04 581.573 1114.72 586.148 1118.07 590.382C1121.43 594.616 1124.08 598.095 1126.03 600.821L1126.32 600.821C1126.32 597.901 1126.35 595.005 1126.4 592.134C1126.44 589.262 1126.47 586.367 1126.47 583.447L1126.47 566.511C1126.47 560.281 1126.25 554.855 1125.81 550.232C1125.37 545.608 1124.5 541.739 1123.18 538.625C1121.87 535.51 1120.02 533.125 1117.64 531.471C1115.25 529.816 1112.11 528.843 1108.22 528.551L1108.22 526.799C1111.63 526.993 1115.06 527.139 1118.51 527.237C1121.97 527.334 1125.4 527.383 1128.8 527.383C1131.92 527.383 1135.08 527.334 1138.29 527.237C1141.51 527.139 1144.67 526.993 1147.78 526.799L1147.78 528.551C1141.65 529.329 1137.44 531.106 1135.16 533.88C1132.87 536.654 1131.72 540.912 1131.72 546.655L1131.72 624.035L1126.32 624.035C1120.97 615.664 1115.3 607.537 1109.31 599.653C1103.33 591.769 1097.39 584.274 1091.5 577.169C1085.61 570.063 1079.92 563.469 1074.42 557.386C1068.92 551.302 1063.98 545.876 1059.6 541.107C1059.5 543.637 1059.43 546.119 1059.38 548.553C1059.33 550.986 1059.31 553.468 1059.31 555.999L1059.31 581.549C1059.31 590.211 1059.48 597.049 1059.82 602.062C1060.16 607.074 1060.99 610.919 1062.3 613.596C1063.62 616.272 1065.56 618.073 1068.14 618.998C1070.72 619.922 1074.3 620.628 1078.87 621.115L1078.87 622.867C1073.91 622.672 1069.09 622.526 1064.42 622.429C1059.75 622.331 1054.93 622.283 1049.96 622.283C1047.14 622.283 1044.37 622.331 1041.64 622.429C1038.92 622.526 1036.14 622.672 1033.32 622.867L1033.32 621.115C1036.63 620.628 1039.53 620.166 1042.01 619.728C1044.49 619.29 1046.53 618.56 1048.14 617.538C1049.75 616.516 1050.96 615.056 1051.79 613.158C1052.62 611.26 1053.08 608.607 1053.18 605.201L1054.93 538.187C1051.81 535.656 1048.41 533.661 1044.71 532.201C1041.01 530.741 1037.21 529.524 1033.32 528.551L1033.32 526.799Z" fill-rule="evenodd"/>
</g>
<g fill="#000000" opacity="1" stroke="none">
<path clip-path="url(#TextBounds_2)" d="M490.561 740.716L490.561 691.396L507.498 691.396L507.498 684.73L466.179 684.73L466.179 691.396L483.08 691.396L483.08 740.716L490.561 740.716Z" fill-rule="evenodd"/>
<path clip-path="url(#TextBounds_2)" d="M533.609 735.147C529.398 735.147 526.032 733.878 523.509 731.342C520.987 728.805 519.726 725.374 519.726 721.049L519.726 684.73L512.245 684.73L512.245 722.061C512.245 725.915 513.095 729.336 514.794 732.323C516.494 735.31 518.943 737.65 522.142 739.343C525.34 741.036 529.163 741.882 533.609 741.882C538.08 741.882 541.909 741.036 545.095 739.343C548.281 737.65 550.724 735.31 552.424 732.323C554.123 729.336 554.973 725.915 554.973 722.061L554.973 684.73L547.493 684.73L547.493 721.049C547.493 725.369 546.231 728.799 543.709 731.338C541.186 733.877 537.819 735.147 533.609 735.147Z" fill-rule="evenodd"/>
<path clip-path="url(#TextBounds_2)" d="M572.585 740.716L572.585 700.388L572.812 700.388L588.413 735.8L594.583 735.8L610.176 700.388L610.437 700.388L610.437 740.716L617.266 740.716L617.266 684.73L609.873 684.73L591.63 727.273L591.427 727.273L573.151 684.73L565.743 684.73L565.743 740.716L572.585 740.716Z" fill-rule="evenodd"/>
<path clip-path="url(#TextBounds_2)" d="M635.715 740.716L635.715 700.388L635.942 700.388L651.543 735.8L657.713 735.8L673.306 700.388L673.566 700.388L673.566 740.716L680.395 740.716L680.395 684.73L673.003 684.73L654.76 727.273L654.557 727.273L636.281 684.73L628.873 684.73L628.873 740.716L635.715 740.716Z" fill-rule="evenodd"/>
<path clip-path="url(#TextBounds_2)" d="M711.347 740.716L711.347 716.841L730.091 684.73L721.576 684.73L707.759 709.461L707.514 709.461L693.705 684.73L685.122 684.73L703.866 716.893L703.866 740.716L711.347 740.716Z" fill-rule="evenodd"/>
</g>
</g>
<g id="Layer-2" vectornator:layerName="Layer 2">
<path d="M77.8905 179.951C78.7313 179.982 79.6473 180.404 80.3415 181.231C81.0358 182.058 81.4943 183.291 81.454 184.658C81.4136 186.025 80.8612 187.514 79.7802 188.643C78.6992 189.771 77.0874 190.517 75.3003 190.451C73.5133 190.386 71.5664 189.487 70.0908 187.73C68.6153 185.972 67.6407 183.352 67.7265 180.447C67.8122 177.541 68.9864 174.376 71.284 171.977C73.5816 169.578 77.0074 167.993 80.8057 168.133C84.604 168.272 88.742 170.181 91.8782 173.917C95.0143 177.652 97.0858 183.222 96.9035 189.397C96.7212 195.573 94.2256 202.3 89.3422 207.399C84.4587 212.498 77.1773 215.866 69.1043 215.569C61.0312 215.273 52.2361 211.216 45.5703 203.276C38.9046 195.336 34.5018 183.498 34.8893 170.373C35.2767 157.248 40.581 142.948 50.9605 132.111C61.34 121.274 76.8162 114.116 93.9751 114.746C111.134 115.376 129.827 123.999 143.995 140.875C158.163 157.75 167.521 182.911 166.697 210.808C165.874 238.705 154.6 269.097 132.539 292.132" fill="none" fill-rule="evenodd" opacity="1" stroke="#000000" stroke-linecap="round" stroke-linejoin="round" stroke-width="8.67552"/>
<path d="M135.172 288.611C135.172 288.611 286.902 370.443 287.755 327.822C288.607 285.201 541.775 370.443 477.844 262.186C413.913 153.929 559.676 122.389 559.676 122.389C559.676 122.389 765.109 203.369 706.292 279.234C647.475 355.1 693.506 423.293 693.506 423.293C693.506 423.293 242.49 498.984 120.54 435.878C-1.4097 372.771 135.172 288.611 135.172 288.611Z" fill="#000000" fill-rule="evenodd" opacity="1" stroke="#000000" stroke-linecap="round" stroke-linejoin="round" stroke-width="3.66454"/>
<g opacity="1">
<path d="M997.989 197.491C997.989 174.195 1019.15 155.311 1045.26 155.311C1071.37 155.311 1092.54 174.195 1092.54 197.491C1092.54 220.786 1071.37 239.67 1045.26 239.67C1019.15 239.67 997.989 220.786 997.989 197.491Z" fill="#000000" fill-rule="evenodd" stroke="none"/>
<path d="M1041.66 151.031C1038.85 151.202 1036.04 151.598 1033.28 152.188C1017.2 155.628 1002.58 166.502 996.531 182.062C995.49 184.742 996.061 183.888 993.969 195.375C993.617 196.04 993.361 196.757 993.375 197.562C995.271 210.053 994.034 206.029 995.281 210.062C1000.57 227.175 1016.05 239.337 1033.25 243C1054.86 247.601 1078.97 239.242 1090.69 219.938C1092.3 217.276 1093.64 214.473 1094.66 211.531C1095.86 208.048 1096.63 204.396 1096.91 200.719C1097.23 196.458 1096.9 192.163 1095.94 188C1095 183.946 1093.45 180.028 1091.41 176.406C1081.46 158.802 1061.32 149.833 1041.66 151.031ZM1043.94 159.719C1058.45 159.363 1073.11 165.49 1081.66 177.625C1083.32 179.994 1084.74 182.547 1085.78 185.25C1086.83 187.958 1087.52 190.802 1087.84 193.688C1088.22 197.042 1088.08 200.466 1087.44 203.781C1086.89 206.62 1085.99 209.359 1084.75 211.969C1076.74 228.782 1057.3 236.913 1039.41 234.75C1025.04 233.014 1011.2 224.372 1005.34 210.812C1004.2 208.168 1005.35 210.811 1002.59 197.406C1002.59 197.182 1002.47 196.996 1002.44 196.781C1003.97 187.357 1003.08 189.722 1004.25 186.375C1008.29 174.79 1018.28 166.174 1029.72 162.25C1034.29 160.68 1039.1 159.837 1043.94 159.719Z" fill="#000000" stroke="none"/>
</g>
<g opacity="1">
<path d="M906.669 289.801C901.94 281.599 923.816 264.138 955.531 250.801C987.245 237.464 1016.79 233.301 1021.52 241.503C1026.25 249.706 1004.37 267.167 972.656 280.504C940.941 293.841 911.398 298.003 906.669 289.801Z" fill="#000000" fill-rule="evenodd" stroke="none"/>
<path d="M1008.12 232.844C1006.75 232.857 1005.37 232.899 1004 233C1002.52 233.109 1001.04 233.282 999.562 233.469C997.433 233.739 995.328 234.076 993.219 234.469C979.337 237.051 965.784 241.655 952.812 247.188C940.792 252.314 929.013 258.329 918.406 266C913.386 269.631 908.298 273.727 904.75 278.875C903.396 280.84 903.729 281.772 903.281 286.781C901.939 288.298 901.65 290.537 902.812 292.312C903.299 293.039 903.105 292.748 903.312 293.062C905.061 295.712 908.658 297.17 911.625 297.844C918.585 299.425 926.427 298.47 933.375 297.281C945.72 295.169 957.769 291.365 969.406 286.781C982.579 281.593 995.513 275.306 1007.22 267.312C1008.98 266.109 1010.69 264.838 1012.38 263.531C1013.91 262.344 1015.43 261.14 1016.88 259.844C1017.86 258.957 1018.83 258.017 1019.75 257.062C1023.84 252.832 1028.53 246.461 1025.91 240.281C1023.11 233.691 1014.33 232.784 1008.12 232.844ZM1004.66 241.844C1007.47 241.64 1010.28 241.669 1013.03 242.062C1014.26 242.238 1015.53 242.483 1016.66 243.031C1016.99 243.192 1017.49 243.419 1017.66 243.781C1017.86 244.212 1017.3 245.397 1017.12 245.75C1016.34 247.349 1015.17 248.76 1013.97 250.062C1009.04 255.4 1002.79 259.558 996.625 263.312C984.633 270.613 971.674 276.443 958.438 281.094C948.424 284.612 938.054 287.556 927.5 288.875C923.442 289.382 919.227 289.7 915.156 289.125C914.082 288.973 915.166 289.129 910.531 287.281C910.523 287.268 910.508 287.263 910.5 287.25C910.486 287.151 910.447 286.803 910.469 286.719C910.676 285.905 911.088 285.143 911.531 284.438C913.046 282.029 915.142 279.981 917.25 278.094C922.465 273.425 928.394 269.56 934.438 266.062C945.031 259.932 956.304 254.87 967.812 250.719C977.084 247.375 986.615 244.582 996.344 242.938C999.063 242.478 1001.85 242.048 1004.66 241.844Z" fill="#000000" stroke="none"/>
</g>
<g opacity="1">
<path d="M1082.39 276.013C1061.77 258.114 1056.92 243.115 1071.55 242.512C1086.19 241.908 1114.77 255.93 1135.38 273.829C1156 291.728 1160.85 306.727 1146.22 307.33C1131.58 307.933 1103.01 293.912 1082.39 276.013Z" fill="#000000" fill-rule="evenodd" stroke="none"/>
<path d="M1073.62 238.125C1067.52 237.897 1060.6 239.716 1059.03 246.5C1058.74 247.752 1058.67 249.067 1058.78 250.344C1058.93 251.968 1059.37 253.538 1059.94 255.062C1062.49 261.912 1060.46 256.007 1078.19 277.719C1078.46 278.39 1078.82 279.031 1079.41 279.531C1086.26 285.116 1083.93 283.318 1086.28 285.125C1090.07 288.034 1093.96 290.759 1097.97 293.344C1105.56 298.233 1113.53 302.585 1121.88 306.062C1127.12 308.249 1132.56 310.143 1138.16 311.188C1140.87 311.694 1143.64 311.993 1146.41 311.875C1148.49 311.786 1150.59 311.454 1152.53 310.656C1153.77 310.145 1154.94 309.472 1155.94 308.562C1156.69 307.875 1157.34 307.07 1157.84 306.188C1158.7 304.708 1159.12 303.131 1159.22 301.531C1159.52 296.733 1156.9 291.656 1154.38 287.844C1153.68 286.793 1152.95 285.751 1152.19 284.75C1151.36 283.669 1150.51 282.626 1149.62 281.594C1148.33 280.095 1146.98 278.63 1145.59 277.219C1136.23 267.677 1125.21 259.667 1113.69 252.938C1104.58 247.619 1094.91 242.864 1084.72 240.031C1081.1 239.026 1077.39 238.265 1073.62 238.125ZM1072.5 246.875C1073.66 246.876 1074.82 246.968 1075.97 247.125C1078.13 247.419 1080.27 247.912 1082.38 248.5C1088.72 250.276 1094.82 252.932 1100.69 255.906C1108.09 259.655 1115.19 264.016 1121.91 268.875C1126.83 272.432 1131.58 276.273 1136 280.438C1137.41 281.771 1138.79 283.118 1140.12 284.531C1141.03 285.487 1141.9 286.469 1142.75 287.469C1143.52 288.372 1144.28 289.304 1145 290.25C1146.89 292.737 1148.72 295.469 1149.69 298.469C1149.92 299.205 1150.48 301.045 1149.84 301.75C1149.15 302.524 1147.66 302.641 1146.72 302.719C1145.7 302.803 1144.68 302.795 1143.66 302.719C1142.02 302.597 1140.38 302.343 1138.78 302C1136 301.403 1133.27 300.572 1130.59 299.625C1119.27 295.62 1108.59 289.61 1098.72 282.812C1095.93 280.894 1098.72 282.811 1085.38 272.5C1085.13 272.291 1084.84 272.211 1084.56 272.062C1077.37 265.089 1078.45 266.476 1075.75 263.438C1073.03 260.376 1070.39 257.048 1068.66 253.312C1068.29 252.529 1067.98 251.71 1067.75 250.875C1067.63 250.433 1067.54 249.987 1067.5 249.531C1067.36 248.014 1067.93 247.55 1069.38 247.188C1069.7 247.106 1070.08 247.045 1070.41 247C1071.09 246.907 1071.81 246.875 1072.5 246.875Z" fill="#000000" stroke="none"/>
</g>
<g opacity="1">
<path d="M974.435 299.644C990.675 256.567 1027.19 230.451 1056 241.312C1084.81 252.173 1095 295.898 1078.76 338.976C1062.52 382.053 1026 408.169 997.194 397.308C968.384 386.447 958.195 342.721 974.435 299.644Z" fill="#000000" fill-rule="evenodd" stroke="none"/>
<path d="M1043.53 234.469C1029.95 234.116 1016.75 239.984 1006.03 248.125C994.154 257.146 984.669 269.187 977.594 282.25C975.947 285.29 976.061 285.48 971.094 296.469C970.672 296.913 970.317 297.45 970.094 298.062C967.71 304.997 968.454 302.648 967.719 305C966.433 309.112 965.333 313.278 964.469 317.5C963.457 322.447 962.777 327.465 962.406 332.5C962.116 336.441 962.034 340.395 962.188 344.344C963.006 365.443 970.875 388.932 990.688 399.406C993.84 401.073 997.218 402.332 1000.69 403.156C1003.78 403.89 1006.95 404.291 1010.12 404.344C1031.44 404.697 1050.66 390.555 1063.56 374.719C1066.13 371.572 1068.51 368.248 1070.72 364.844C1073.54 360.503 1076.09 356.005 1078.34 351.344C1085.92 335.636 1090.51 318.252 1090.91 300.781C1091.14 290.469 1089.92 280.063 1086.66 270.25C1084.54 263.904 1081.54 257.783 1077.5 252.438C1074.72 248.766 1071.49 245.479 1067.78 242.75C1064.94 240.66 1061.83 238.919 1058.56 237.594C1055.61 236.397 1052.52 235.54 1049.38 235.031C1047.42 234.716 1045.47 234.519 1043.53 234.469ZM1044.22 243.25C1046.55 243.383 1048.91 243.751 1051.25 244.375C1053.7 245.028 1056.07 245.97 1058.31 247.156C1074.4 255.68 1080.8 275.207 1081.88 292.281C1082.07 295.441 1082.09 298.618 1081.97 301.781C1081.83 305.514 1081.48 309.242 1080.94 312.938C1080.24 317.685 1079.26 322.408 1077.97 327.031C1073.64 342.601 1066.2 357.503 1055.78 369.906C1050.25 376.492 1043.87 382.426 1036.56 387C1031.68 390.059 1026.31 392.617 1020.69 393.969C1016.73 394.92 1012.67 395.388 1008.59 395.125C1005.81 394.945 1003.06 394.445 1000.41 393.594C983.025 388.022 974.621 369.932 972.188 353.094C970.445 341.036 971.354 328.627 974.062 316.781C974.859 313.298 974.043 316.783 978.75 301.219C978.867 300.899 978.863 300.574 978.906 300.25C980.32 296.772 980.336 296.62 981.125 294.844C982.751 291.183 984.544 287.572 986.531 284.094C988.846 280.043 991.436 276.158 994.25 272.438C996.431 269.553 998.759 266.779 1001.25 264.156C1012.11 252.725 1027.9 242.321 1044.22 243.25Z" fill="#000000" stroke="none"/>
</g>
<g opacity="1">
<path d="M922.175 411.058C951.763 381.761 981.435 363.754 988.45 370.839C995.465 377.923 977.166 407.416 947.578 436.713C917.99 466.01 888.318 484.017 881.303 476.933C874.289 469.848 892.588 440.355 922.175 411.058Z" fill="#000000" fill-rule="evenodd" stroke="none"/>
<path d="M983.25 364.938C980.173 365.077 977.009 366.023 974.375 367.031C973.461 367.381 972.614 367.727 971.719 368.125C970.296 368.757 968.88 369.436 967.5 370.156C961.695 373.185 956.21 376.827 950.906 380.656C944.403 385.352 938.168 390.41 932.156 395.719C929.541 398.029 929.978 397.754 920.156 406.969C919.714 407.186 919.274 407.446 918.906 407.812C912.547 414.297 914.647 412.096 912.562 414.281C909.693 417.289 906.897 420.343 904.156 423.469C897.688 430.848 891.527 438.55 886.125 446.75C882.554 452.171 879.173 457.901 876.969 464.031C876.128 466.368 875.464 468.796 875.281 471.281C875.168 472.828 875.243 474.405 875.656 475.906C875.981 477.086 876.484 478.237 877.219 479.219C879.378 482.102 882.508 483.054 885.812 483.031C889.117 483.009 892.621 481.998 895.469 480.906C896.386 480.555 897.227 480.212 898.125 479.812C899.551 479.179 900.961 478.472 902.344 477.75C903.853 476.962 905.345 476.144 906.812 475.281C908.955 474.021 911.054 472.688 913.125 471.312C919.112 467.336 924.832 462.978 930.375 458.406C942.361 448.518 953.575 437.634 963.906 426.031C972.171 416.749 980.044 406.931 986.438 396.25C987.311 394.792 988.139 393.313 988.938 391.812C989.669 390.438 990.356 389.042 991 387.625C991.586 386.336 992.146 385.02 992.625 383.688C993.524 381.184 994.305 378.265 994.344 375.438C994.383 372.61 993.664 369.871 991.562 367.75C989.299 365.466 986.327 364.798 983.25 364.938ZM984.438 373.719C984.644 373.735 985.188 373.733 985.344 373.938C985.679 374.38 985.57 375.321 985.531 375.812C985.426 377.147 985.098 378.45 984.688 379.719C984.22 381.165 983.631 382.587 983 383.969C982.007 386.141 980.886 388.247 979.688 390.312C977.94 393.323 976.021 396.239 974.031 399.094C970.455 404.227 966.591 409.152 962.562 413.938C953.882 424.25 944.413 433.941 934.406 442.969C925.665 450.855 916.473 458.339 906.562 464.719C901.454 468.007 896.027 471.283 890.188 473.094C888.71 473.552 886.067 474.333 884.531 473.688C884.409 473.636 884.374 472.678 884.375 472.5C884.383 471.324 884.65 470.157 884.969 469.031C886.258 464.48 888.608 460.188 891.031 456.156C897.352 445.638 905.205 436.007 913.406 426.906C915.87 424.173 913.42 426.891 925.438 414.312C925.726 414.025 925.898 413.679 926.094 413.344C929.01 410.517 929.168 410.338 930.719 408.875C933.381 406.364 936.09 403.91 938.844 401.5C947.782 393.68 957.207 386.204 967.469 380.188C971.772 377.665 976.408 375.152 981.312 374.031C982.328 373.799 983.392 373.635 984.438 373.719Z" fill="#000000" stroke="none"/>
</g>
<g opacity="1">
<path d="M1046.62 445.912C1034.11 416.751 1030.39 388.273 1038.31 382.305C1046.23 376.337 1062.79 395.14 1075.3 424.301C1087.81 453.462 1091.53 481.94 1083.61 487.908C1075.69 493.876 1059.12 475.074 1046.62 445.912Z" fill="#000000" fill-rule="evenodd" stroke="none"/>
<path d="M1042.53 376.812C1040.87 376.678 1039.2 376.929 1037.53 377.688C1036.85 377.996 1036.25 378.335 1035.66 378.781C1029.93 383.092 1029.54 392.305 1029.81 398.812C1030.05 404.421 1030.94 409.988 1032.12 415.469C1033.49 421.767 1032.64 417.29 1042 445.906C1042 446.525 1042.14 447.147 1042.41 447.75C1046.53 456.707 1045.04 453.763 1046.5 456.719C1047.87 459.494 1049.32 462.211 1050.84 464.906C1055.42 473.024 1060.86 481.447 1067.88 487.688C1072.52 491.82 1079.35 495.845 1085.47 492.188C1091.03 488.864 1092.16 481.279 1092.31 475.375C1092.47 468.998 1091.58 462.577 1090.31 456.344C1088.74 448.624 1086.48 441.066 1083.81 433.656C1079.91 422.814 1075.1 412.211 1069.19 402.312C1065.36 395.905 1061.05 389.611 1055.72 384.344C1052.33 380.996 1047.52 377.216 1042.53 376.812ZM1041.06 385.719C1042 385.136 1044.1 386.353 1044.84 386.812C1047.83 388.65 1050.32 391.31 1052.56 393.969C1054.61 396.392 1056.46 398.955 1058.22 401.594C1061.27 406.178 1063.99 410.99 1066.47 415.906C1070.95 424.802 1074.67 434.083 1077.62 443.594C1079.97 451.139 1081.86 458.889 1082.75 466.75C1083.07 469.529 1083.26 472.328 1083.19 475.125C1083.15 476.66 1083.02 478.207 1082.75 479.719C1082.62 480.41 1082.46 481.081 1082.25 481.75C1082.09 482.243 1081.9 482.729 1081.66 483.188C1080.78 484.859 1079.85 484.619 1078.25 483.844C1077.88 483.663 1077.54 483.468 1077.19 483.25C1076.55 482.858 1075.93 482.432 1075.34 481.969C1072.18 479.48 1069.52 476.348 1067.09 473.156C1064.7 469.999 1062.53 466.655 1060.5 463.25C1058.44 459.79 1060.51 463.25 1050.84 444.062C1050.69 443.707 1050.41 443.45 1050.19 443.156C1047.97 437.629 1048.06 437.969 1047.09 435.344C1046.04 432.482 1045.03 429.569 1044.12 426.656C1041.39 417.903 1039.18 408.806 1038.62 399.625C1038.49 397.441 1038.48 395.245 1038.66 393.062C1038.75 391.937 1038.88 390.821 1039.12 389.719C1039.41 388.448 1039.84 386.474 1041.06 385.719Z" fill="#000000" stroke="none"/>
</g>
<g opacity="1">
<path d="M628.031 179.688C626.854 179.624 625.665 180.025 624.719 180.875C623.772 181.725 623.251 182.854 623.188 184.031C623.124 185.208 623.525 186.428 624.375 187.375C656.433 223.062 691.143 257.143 730.969 284.125C756.15 301.185 783.846 315.771 813.688 322.562C824.291 324.975 835.135 326.312 845.938 326.312C863.941 326.313 881.781 322.587 898 313.938C903.434 311.04 908.609 307.628 913.344 303.688C915.617 301.796 917.894 299.792 919.812 297.531C921.369 295.693 921.15 292.932 919.312 291.375C917.475 289.818 914.713 290.037 913.156 291.875C913.195 291.83 913.071 291.987 913.031 292.031C912.954 292.119 912.857 292.199 912.781 292.281C912.492 292.595 912.207 292.916 911.906 293.219C911.255 293.876 910.592 294.503 909.906 295.125C907.736 297.094 905.423 298.901 903.031 300.594C896.513 305.205 889.35 308.884 881.844 311.594C858.278 320.102 832.385 318.787 808.531 312.156C779.633 304.123 753.066 288.923 728.812 271.562C692.667 245.69 660.838 214.23 631.219 181.219C630.369 180.272 629.208 179.751 628.031 179.688Z" fill="#000000" stroke="none"/>
</g>
</g>
<g id="Layer-3" vectornator:layerName="Layer 3">
<g opacity="1">
<g opacity="1">
<path d="M309.416 236.518C301.161 215.838 317.656 189.817 346.26 178.398C374.864 166.979 404.745 174.487 413 195.167C421.256 215.847 404.76 241.868 376.156 253.287C347.552 264.705 317.671 257.198 309.416 236.518Z" fill="#000000" fill-rule="evenodd" stroke="none"/>
<path d="M376.125 172.625C354.453 171.59 331.055 181.606 317.344 198.531C310.552 206.915 317.326 198.51 308.938 236.688C308.941 236.698 308.933 236.708 308.938 236.719C312.248 242.844 310.902 240.921 312.25 242.844C318.878 252.299 330.155 257.195 341.312 258.656C344.142 259.027 347.021 259.177 349.906 259.156C370.105 259.014 391.043 249.563 404.031 234.438C413.249 223.703 418.991 208.797 413.469 194.969C407.489 179.997 391.268 173.348 376.125 172.625ZM370.906 173.594C373.747 173.502 376.554 173.59 379.344 173.875C393.027 175.271 407.16 181.882 412.531 195.344C418.35 209.928 411.255 225.536 401.062 236.188C386.29 251.625 362.739 260.381 341.469 257.594C331.044 256.228 341.462 257.598 309.906 236.312C309.902 236.302 309.88 236.323 309.875 236.312C318.091 199.164 309.657 209.608 318.125 199.156C330.508 183.873 351.019 174.236 370.906 173.594Z" fill="#000000" stroke="none"/>
</g>
<path d="M376.011 173.384C372.787 174.671 367.516 165.379 368.867 162.233C371.187 156.83 378.496 156.84 380.763 151.561C381.623 149.557 381.258 147.214 380.86 145.059C380.813 144.801 379.62 142.38 379.748 142.272C380.613 141.541 383.622 143.286 384.576 143.576C389.682 145.127 394.697 149.401 397.386 154.08C401.985 162.081 396.427 174.669 390.866 180.917" fill="#000000" fill-rule="evenodd" opacity="1" stroke="#000000" stroke-linecap="round" stroke-linejoin="round" stroke-width="1"/>
<path d="M316.637 209.472C311.094 211.685 306.624 215.309 300.564 216.427C295.355 217.388 291.265 217.415 289.051 211.868C288.775 211.177 287.971 208.307 287.382 207.687C285.968 206.201 282.182 205.944 280.324 206.196C279.958 206.246 277.66 207.619 277.351 206.844C277.228 206.535 278.01 206.668 278.28 206.473C279.009 205.948 279.582 205.236 280.232 204.617C282.247 202.701 283.908 200.48 285.902 198.584C288.158 196.438 290.596 194.123 293.151 192.459C295.8 190.734 298.835 191.337 301.789 191.165C308.192 190.793 315.773 191.118 318.502 197.956" fill="#000000" fill-rule="evenodd" opacity="1" stroke="#000000" stroke-linecap="round" stroke-linejoin="round" stroke-width="1"/>
</g>
<path d="M338.941 253.725C338.941 253.725 317.437 275.647 313.491 303.248C309.544 330.849 328.774 352.127 337.131 355.948C345.488 359.769 374.996 363.604 399.915 352.681C424.833 341.758 426.57 345.294 471.755 315.87C516.94 286.446 499.269 256.524 499.269 256.524C499.269 256.524 498.711 235.386 472.498 216.788C446.285 198.19 412.088 210.431 412.088 210.431L338.941 253.725Z" fill="#000000" fill-rule="evenodd" opacity="1" stroke="#000000" stroke-linecap="round" stroke-linejoin="round" stroke-width="1"/>
<path d="M410.18 205.784C410.18 205.784 409.599 194.139 415.997 184.438C422.394 174.737 435.77 166.98 435.77 166.98L445.546 180.754C445.546 180.754 445.927 190.106 443.881 195.734C441.835 201.362 432.067 210.778 432.067 210.778L422.594 219.118L410.18 205.784Z" fill="#000000" fill-rule="evenodd" opacity="1" stroke="#000000" stroke-linecap="round" stroke-linejoin="round" stroke-width="1"/>
<path d="M344.942 256.764C344.942 256.764 333.247 247.463 328.703 248.079C324.159 248.695 319.481 244.975 305.985 251.161C292.489 257.347 280.752 267.205 280.752 267.205L286.294 284.827C286.294 284.827 300.374 287.842 308.395 285.599C316.416 283.356 323.998 277.962 323.998 277.962L344.942 256.764Z" fill="#000000" fill-rule="evenodd" opacity="1" stroke="#000000" stroke-linecap="round" stroke-linejoin="round" stroke-width="1"/>
<path d="M435.788 168.328L445.43 153.669L446.648 167.393L459.776 168.806L447.518 177.201L436.693 184.046L435.788 168.328Z" fill="#000000" fill-rule="evenodd" opacity="1" stroke="#000000" stroke-linecap="round" stroke-linejoin="round" stroke-width="1"/>
<path d="M282.369 268.199L265.472 266.426L271.331 279.005L268.596 289.384L290.128 283.037L289.366 282.514L282.369 268.199Z" fill="#000000" fill-rule="evenodd" opacity="1" stroke="#000000" stroke-linecap="round" stroke-linejoin="round" stroke-width="1"/>
<path d="M579.699 221.39C579.613 222.484 579.054 223.65 578.031 224.505C577.008 225.36 575.521 225.886 573.911 225.766C572.301 225.645 570.585 224.863 569.326 223.432C568.067 222.001 567.292 219.92 567.469 217.668C567.647 215.416 568.799 213.014 570.906 211.253C573.013 209.492 576.076 208.408 579.391 208.656C582.707 208.904 586.243 210.516 588.837 213.464C591.43 216.411 593.025 220.697 592.66 225.335C592.295 229.973 589.922 234.92 585.582 238.548C581.242 242.176 574.933 244.407 568.104 243.897C561.275 243.386 553.991 240.067 548.65 233.995C543.309 227.924 540.023 219.097 540.775 209.544C541.527 199.99 546.414 189.8 555.353 182.328C564.292 174.856 577.288 170.26 591.353 171.312C605.419 172.364 620.422 179.201 631.423 191.706C642.424 204.212 649.192 222.392 647.643 242.069C646.094 261.746 636.028 282.735 617.616 298.125C599.204 313.515 572.437 322.982 543.465 320.816C514.494 318.649 483.592 304.567 460.933 278.809" fill="none" fill-rule="evenodd" opacity="1" stroke="#fffcfc" stroke-linecap="round" stroke-linejoin="round" stroke-width="5.98052"/>
<path d="M648.886 334.086C648.862 334.106 648.824 334.121 648.777 334.12C648.73 334.119 648.674 334.102 648.629 334.063C648.583 334.024 648.549 333.962 648.55 333.886C648.552 333.811 648.592 333.721 648.683 333.648C648.774 333.575 648.918 333.52 649.094 333.522C649.27 333.525 649.477 333.589 649.647 333.735C649.817 333.882 649.946 334.114 649.94 334.397C649.933 334.68 649.786 335.014 649.445 335.287C649.104 335.561 648.565 335.768 647.906 335.758C647.248 335.748 646.472 335.511 645.837 334.962C645.201 334.414 644.718 333.545 644.742 332.486C644.765 331.427 645.317 330.177 646.592 329.155C647.867 328.133 649.887 327.355 652.349 327.393C654.812 327.431 657.716 328.319 660.093 330.371C662.47 332.423 664.277 335.673 664.189 339.636C664.101 343.599 662.037 348.274 657.266 352.099C652.495 355.924 644.94 358.832 635.727 358.691C626.513 358.549 615.646 355.227 606.752 347.549C597.859 339.871 591.099 327.712 591.428 312.885" fill="none" fill-rule="evenodd" opacity="1" stroke="#fffcfc" stroke-linecap="round" stroke-linejoin="round" stroke-width="5.98052"/>
<path d="M193.863 401.675C193.863 401.675 461.9 489.491 591.004 319.756" fill="none" fill-rule="evenodd" opacity="1" stroke="#fffcfc" stroke-linecap="round" stroke-linejoin="round" stroke-width="5.98052"/>
<path d="M191.897 400.364C191.897 400.364 495.323 438.374 586.416 317.79" fill="none" fill-rule="evenodd" opacity="1" stroke="#fffcfc" stroke-linecap="round" stroke-linejoin="round" stroke-width="5.98052"/>
<path d="M456.962 268.997C455.903 268.997 454.041 267.97 453.784 268.997C453.333 270.801 457.199 275.572 458.021 276.942C461.077 282.035 464.569 286.667 468.614 290.712C470.112 292.21 472.735 293.056 474.44 294.42C476.828 296.331 478.603 298.053 480.796 300.246C480.858 300.308 483.973 302.585 483.973 302.364C483.973 299.815 476.986 295.677 475.499 294.42C469.038 288.953 463.176 283.194 457.492 276.942C457.389 276.829 452.725 272.537 452.725 271.646C452.725 270.572 455.009 271.58 455.903 272.175C456.843 272.802 457.752 273.494 458.551 274.294C464.018 279.76 469.358 285.406 475.499 290.183C475.722 290.356 482.175 295.159 482.385 294.95C482.563 294.771 480.79 292.295 478.677 289.653C474.493 284.423 470.378 279.316 465.436 274.823C463.958 273.48 462.759 271.834 461.199 270.586C460.891 270.34 460.14 269.662 460.14 270.057C460.14 270.631 463.564 274.398 463.847 274.823C466.464 278.748 469.188 282.42 472.321 285.946C473.648 287.439 475.146 288.77 476.559 290.183C476.912 290.536 477.618 291.741 477.618 291.242C477.618 289.663 476.153 288.443 475.499 287.005C473.491 282.586 471.655 279.009 469.144 274.823C467.144 271.491 467.163 269.723 466.495 270.057C464.885 270.862 466.949 273.658 467.555 275.353C469.786 281.6 471.841 288.025 474.97 293.89C475.66 295.185 477.391 298.43 478.677 299.716C478.956 299.995 479.457 300.525 479.736 300.246C480.3 299.682 477.87 284.531 477.618 282.768C477.441 281.532 477.333 280.285 477.088 279.06C476.979 278.513 476.953 277.077 476.559 277.472C475.759 278.271 478.843 289.606 479.207 291.242C479.523 292.663 479.866 294.079 480.266 295.479C480.419 296.016 480.546 297.567 480.796 297.068C482.472 293.715 479.575 283.62 481.325 280.12C481.502 279.767 481.799 280.788 481.855 281.179C481.98 282.053 481.767 282.949 481.855 283.827C481.944 284.723 482.223 285.59 482.385 286.475C483.154 290.705 483.796 294.947 484.503 299.187C484.542 299.422 485.905 306.259 486.092 306.072C486.949 305.215 485.435 294.768 485.033 293.361C484.89 292.863 484.168 289.026 482.914 289.653C480.468 290.876 481.325 301.567 481.325 303.953C481.325 304.786 481.325 311.368 481.325 311.368C483 311.368 482.538 308.233 482.914 306.601C484.213 300.973 485.064 295.61 487.151 290.183C487.834 288.408 488.419 286.587 489.27 284.886C489.446 284.533 489.446 283.651 489.799 283.827C491.399 284.627 489.549 289.065 489.27 290.183C487.958 295.431 486.724 300.845 485.562 306.072C485.292 307.29 485.278 308.555 485.033 309.779C484.963 310.126 485.033 311.192 485.033 310.839C485.033 308.574 485.388 306.223 485.562 303.953C485.658 302.709 485.927 301.483 486.092 300.246C486.28 298.835 486.378 297.411 486.622 296.009C487.084 293.348 487.681 290.712 488.21 288.064C488.266 287.786 489.02 283.796 489.27 283.298C489.428 282.982 489.27 284.004 489.27 284.357C489.27 284.886 489.27 285.416 489.27 285.946C489.27 287.02 488.892 288.06 488.74 289.124C488.237 292.646 487.545 296.176 487.151 299.716C486.994 301.131 486.856 302.549 486.622 303.953C486.53 304.504 486.487 305.937 486.092 305.542C485.178 304.628 487.032 300.668 487.151 299.716C487.702 295.307 489.563 287.653 494.036 285.416" fill="none" fill-rule="evenodd" opacity="1" stroke="#000000" stroke-linecap="round" stroke-linejoin="round" stroke-width="5.98052"/>
<path d="M478.147 286.475C476.44 285.906 474.97 285.416 474.97 285.416C474.97 287.786 478.408 292.12 479.736 293.89C483.619 299.067 486.905 304.639 490.859 309.779C492.625 312.076 495.055 315.32 497.744 316.665C498.097 316.841 498.803 317.589 498.803 317.194C498.803 316.195 495.52 313.106 495.096 312.427C492.276 307.916 488.805 303.51 485.562 299.187C484.214 297.389 482.502 295.882 480.796 294.42C480.227 293.932 479.792 293.299 479.207 292.831C478.898 292.584 478.147 291.907 478.147 292.301C478.147 295.744 487.468 306.252 489.799 309.25C489.977 309.478 493.152 313.487 493.507 313.487C493.86 313.487 493.592 312.77 493.507 312.427C493.325 311.699 492.177 310.245 491.918 309.779C491.343 308.744 490.926 307.624 490.329 306.601C487.53 301.804 485.019 296.872 481.855 292.301C480.628 290.53 479.4 288.759 478.147 287.005C477.777 286.487 477.088 284.78 477.088 285.416C477.088 286.092 478.845 289.46 479.207 290.183C482.148 296.066 485.826 301.535 489.27 307.131C490.994 309.932 492.77 312.75 495.096 315.076C495.72 315.7 496.685 318.077 496.685 317.194C496.685 314.276 488.695 303.793 486.622 301.305C485.822 300.346 484.753 299.632 483.973 298.657C483.576 298.16 483.364 296.618 482.914 297.068C481.92 298.062 485.101 303.714 485.562 304.483C488.594 309.536 491.871 313.607 497.744 315.076C499.052 315.403 501.834 317 503.04 317.724C503.797 318.178 505.159 320.195 505.159 319.313C505.159 318.411 499.997 314.585 499.333 314.016C494.615 309.972 489.54 305.019 485.562 300.246C484.536 299.015 482.245 296.51 481.855 294.95C481.769 294.607 481.502 293.89 481.855 293.89C482.644 293.89 482.44 295.377 482.914 296.009C484.647 298.319 486.506 300.507 488.21 302.894C493.132 309.785 499.764 315.556 507.277 319.313" fill="none" fill-rule="evenodd" opacity="1" stroke="#000000" stroke-linecap="round" stroke-linejoin="round" stroke-width="5.98052"/>
</g>
<g id="Layer-4" vectornator:layerName="Layer 4">
<g opacity="1">
<path d="M144.25 331.75C141.831 331.589 139.381 331.75 137 332.25C125.164 334.735 115.941 344.181 111.594 355.188C109.977 359.281 109.004 363.64 108.719 368.031C108.447 372.217 108.756 376.434 109.656 380.531C113.55 398.261 127.962 411.394 145.562 415.062C158.7 417.8 172.565 415.171 184.469 409.219C187.855 407.526 191.022 405.536 194.125 403.375C195.564 402.372 195.94 400.408 194.938 398.969C193.935 397.53 191.939 397.154 190.5 398.156C187.649 400.144 184.736 402.005 181.625 403.562C170.54 409.114 157.482 411.535 145.312 408.531C136.91 406.457 129.155 401.821 123.594 395.156C114.033 383.7 112.04 366.79 119.125 353.594C123.1 346.191 129.877 340.031 138.25 338.25C146.429 336.511 155.461 339.799 158.469 348.094C159.024 349.626 159.329 351.246 159.375 352.875C159.505 357.483 157.422 362.332 153.438 364.844C150.571 366.651 146.173 367.072 143.969 364C143.39 363.193 143.058 362.21 143.031 361.219C143.03 361.168 143.062 361.114 143.062 361.062C143.969 362.994 146.086 364.209 148.469 363.625C151.519 362.877 153.315 359.636 152.844 356.625C152.662 355.461 152.162 354.376 151.406 353.469C150.584 352.482 149.499 351.744 148.281 351.344C143.217 349.68 138.349 353.932 137.281 358.688C136.421 362.52 137.717 366.614 140.625 369.25C145.722 373.87 153.337 372.848 158.375 368.719C162.376 365.44 164.825 360.435 165.312 355.312C165.567 352.641 165.341 349.922 164.594 347.344C164.067 345.527 163.277 343.843 162.312 342.219C158.449 335.71 151.506 332.232 144.25 331.75ZM148.406 358.719C148.434 358.799 148.518 358.853 148.531 358.938C148.551 359.059 148.461 359.212 148.531 359.312C148.566 359.098 148.417 358.928 148.406 358.719Z" fill="#fffcfc" stroke="none"/>
</g>
<g opacity="1">
<path d="M1016.54 112.088L1080.76 112.088C1081.1 112.088 1081.38 112.366 1081.38 112.708L1081.38 156.852C1081.38 157.195 1081.1 157.472 1080.76 157.472L1016.54 157.472C1016.2 157.472 1015.92 157.195 1015.92 156.852L1015.92 112.708C1015.92 112.366 1016.2 112.088 1016.54 112.088Z" fill="#000000" fill-rule="evenodd" stroke="none"/>
<path d="M1016.16 108.938C1014.63 109.435 1015.14 109.141 1014.62 109.438C1012.85 110.467 1012.75 112.262 1012.75 114.094C1012.75 115.473 1012.75 116.839 1012.75 118.219C1012.75 118.679 1012.75 119.134 1012.75 119.594C1012.75 130.17 1012.75 140.768 1012.75 151.344C1012.75 152.723 1012.75 154.089 1012.75 155.469C1012.75 156.123 1012.68 157.157 1012.88 157.844C1013.24 159.147 1014.26 160.136 1015.56 160.5C1015.86 160.584 1016.16 160.605 1016.47 160.625C1018.48 160.754 1020.55 160.626 1022.56 160.625C1025.91 160.624 1029.25 160.628 1032.59 160.625C1043.3 160.614 1053.98 160.608 1064.69 160.594C1069.04 160.588 1073.4 160.568 1077.75 160.562C1079.32 160.56 1081.2 160.888 1082.62 160.062C1084.38 159.048 1084.47 157.27 1084.47 155.469C1084.47 153.629 1084.47 151.808 1084.47 149.969C1084.46 139.852 1084.42 129.71 1084.41 119.594C1084.4 117.754 1084.41 115.933 1084.41 114.094C1084.4 112.315 1084.33 110.565 1082.59 109.562C1081.68 109.031 1080.77 109.062 1079.75 109.062C1078.75 109.063 1077.75 109.062 1076.75 109.062C1072.4 109.065 1068.04 109.06 1063.69 109.062C1053.32 109.069 1042.96 109.092 1032.59 109.094C1029.46 109.094 1030.42 109.092 1017.53 109.094C1017.1 108.95 1016.64 108.876 1016.16 108.938ZM1019.09 115.094C1019.9 115.094 1021.45 115.094 1022.56 115.094C1025.91 115.094 1029.25 115.093 1032.59 115.094C1042.96 115.095 1053.32 115.119 1063.69 115.125C1067.7 115.127 1071.74 115.123 1075.75 115.125C1076.62 115.126 1077.48 115.124 1078.34 115.125C1078.36 115.706 1078.34 116.284 1078.34 116.844C1078.34 119.603 1078.32 122.366 1078.31 125.125C1078.3 132.482 1078.32 139.83 1078.31 147.188C1078.31 149.487 1078.28 151.795 1078.28 154.094C1078.28 154.187 1078.28 154.281 1078.28 154.375C1077.1 154.373 1075.93 154.377 1074.75 154.375C1070.74 154.37 1066.7 154.349 1062.69 154.344C1051.98 154.329 1041.3 154.323 1030.59 154.312C1027.25 154.309 1023.91 154.314 1020.56 154.312C1020.08 154.312 1019.58 154.313 1019.09 154.312C1019.09 154.24 1019.09 154.167 1019.09 154.094C1019.09 152.254 1019.09 150.402 1019.09 148.562C1019.1 140.285 1019.09 132.027 1019.09 123.75C1019.09 120.991 1019.09 118.228 1019.09 115.469C1019.09 115.344 1019.09 115.219 1019.09 115.094Z" fill="#000000" stroke="none"/>
</g>
<g opacity="1">
<path d="M991.228 155.727L1105.19 155.727C1105.54 155.727 1105.81 156.004 1105.81 156.347L1105.81 171.689C1105.81 172.032 1105.54 172.309 1105.19 172.309L991.228 172.309C990.885 172.309 990.608 172.032 990.608 171.689L990.608 156.347C990.608 156.004 990.885 155.727 991.228 155.727Z" fill="#000000" fill-rule="evenodd" stroke="none"/>
<path d="M990.844 152.562C989.317 153.06 989.825 152.766 989.312 153.062C987.34 154.203 987.437 156.258 987.438 158.25C987.438 161.446 987.437 164.647 987.438 167.844C987.438 169.133 987.381 170.431 987.438 171.719C987.513 173.421 988.579 174.882 990.25 175.344C991.139 175.589 992.078 175.469 993 175.469C993.594 175.469 994.188 175.469 994.781 175.469C996.562 175.468 998.345 175.469 1000.12 175.469C1006.65 175.467 1013.19 175.47 1019.72 175.469C1040.49 175.463 1061.26 175.461 1082.03 175.438C1088.56 175.43 1095.1 175.414 1101.62 175.406C1104.31 175.403 1107.85 176.023 1108.78 172.656C1109.04 171.73 1108.91 170.742 1108.91 169.781C1108.91 169.142 1108.91 168.483 1108.91 167.844C1108.9 164.647 1108.91 161.446 1108.91 158.25C1108.9 156.297 1109 154.276 1107.06 153.156C1105.92 152.497 1104.67 152.655 1103.41 152.656C1101.63 152.658 1099.84 152.654 1098.06 152.656C1090.35 152.665 1082.62 152.679 1074.91 152.688C1056.51 152.708 1038.12 152.716 1019.72 152.719C1013.99 152.72 1017.43 152.715 992.219 152.719C991.784 152.575 991.328 152.501 990.844 152.562ZM993.781 158.719C999.11 158.719 1000.44 158.75 1003.69 158.75C1009.62 158.751 1015.56 158.749 1021.5 158.75C1040.49 158.753 1059.47 158.76 1078.47 158.781C1086.19 158.79 1093.91 158.772 1101.62 158.781C1102 158.782 1102.37 158.772 1102.75 158.781C1102.76 159.249 1102.75 159.72 1102.75 160.188C1102.75 161.466 1102.72 162.753 1102.72 164.031C1102.72 165.761 1102.72 167.489 1102.72 169.219C1102.35 169.227 1101.99 169.219 1101.62 169.219C1100.44 169.217 1099.25 169.22 1098.06 169.219C1093.91 169.214 1089.75 169.192 1085.59 169.188C1073.13 169.173 1060.68 169.167 1048.22 169.156C1035.16 169.145 1022.09 169.16 1009.03 169.156C1004.88 169.155 1000.72 169.126 996.562 169.125C995.648 169.125 994.714 169.141 993.781 169.125C993.772 168.699 993.781 168.27 993.781 167.844C993.782 166.565 993.781 165.31 993.781 164.031C993.782 162.269 993.781 160.481 993.781 158.719Z" fill="#000000" stroke="none"/>
</g>
</g>
</svg>
